<?xml version="1.0" encoding="UTF-8"?><svg id="a" xmlns="http://www.w3.org/2000/svg" viewBox="0 0 680 248.62"><defs><style>.b{fill:#ec002c;}.c{fill:#ff002c;}.d{fill:#27aae1;}.e{fill:#27c1e1;}</style></defs><g><path d="M252.32,118.27l31.15-32.9h-15.52l-28.26,30.3-1.75,2.4,.32-3.74v-28.96h-12.21v75.33h12.21v-29.72l5.26-5.06,25.77,34.77h15.31l-32.29-42.43Z"/><path d="M375.57,108.4c-2.02-4.68-4.82-8.8-8.39-12.36-3.59-3.59-7.71-6.4-12.36-8.45-4.68-2.05-9.61-3.07-14.87-3.07s-10.37,1.02-14.99,3.07c-4.62,2.05-8.68,4.85-12.21,8.45-3.51,3.56-6.28,7.69-8.27,12.36-2.02,4.65-3.01,9.56-3.01,14.73s.99,10.4,3.01,15.05c1.99,4.68,4.76,8.74,8.27,12.21,3.54,3.48,7.6,6.22,12.21,8.18,4.62,1.96,9.58,2.95,14.9,2.95s10.29-.99,14.9-2.95c4.62-1.96,8.74-4.73,12.36-8.27,3.62-3.57,6.43-7.66,8.44-12.27,1.99-4.62,2.98-9.58,2.98-14.9s-.99-10.08-2.98-14.73Zm-11.45,25.19c-1.34,3.24-3.16,6.08-5.46,8.53-2.34,2.45-5.06,4.35-8.18,5.76-3.16,1.37-6.55,2.05-10.2,2.05s-7.07-.67-10.29-2.05c-3.21-1.4-6.02-3.3-8.45-5.76-2.4-2.45-4.3-5.29-5.64-8.53-1.34-3.24-2.02-6.75-2.02-10.55s.67-7.13,1.96-10.4c1.32-3.27,3.16-6.14,5.55-8.59,2.37-2.45,5.14-4.38,8.33-5.79,3.16-1.43,6.57-2.13,10.23-2.13s7.07,.7,10.26,2.07c3.19,1.37,5.93,3.3,8.27,5.79,2.37,2.48,4.21,5.35,5.58,8.59,1.4,3.24,2.07,6.75,2.07,10.55s-.67,7.22-2.02,10.46Z"/><path d="M407.02,85.37v75.33h12.1V85.37h-12.1Z"/><path d="M498.89,85.37l-18.94,49.53-19.87-49.53h-14.26l33.52,78.72,33.72-78.72h-14.17Z"/><path d="M551.87,149.1v-20.48h33.75v-11.6h-33.75v-20.08h37.87v-11.57h-49.97v75.33h51.43v-11.6h-39.33Z"/><path d="M632.37,149.1v-63.73h-12.1v75.33h49.24v-11.6h-37.14Z"/></g><g><path class="e" d="M75.93,153.86c-1.04,1.33-1.9,2.81-3.07,4.03-2.66,2.74-6.95,3.77-10.56,2.54-1.66-.57-3.16-1.56-4.86-2.03s-3.78-.23-4.79,1.2c-1.01,1.44-.54,3.42-.92,5.14-.71,3.28-4.27,5.04-7.52,5.88-2.5,.65-5.14,1.02-7.66,.46-2.52-.56-4.91-2.22-5.81-4.64-1-2.69,.04-5.82,1.96-7.96,1.91-2.14,4.57-3.46,7.23-4.53,4.74-1.91,9.73-3.22,14.8-3.87,4.67-.6,9.39-.65,14.1-.7,3.82-.04,8.38-.75,12.09,.03-1.7,1.45-3.55,2.63-4.98,4.46Z"/><path class="d" d="M42.09,179.85c2.61,1.19,5.42,1.94,7.91,3.36,5.09,2.91,8.81,8.59,14.61,9.44,2.37,.35,4.79-.19,7.01-1.07,3.9-1.55,7.31-4.12,11.11-5.89,3.8-1.77,8.38-2.69,12.12-.79,2.86,1.45,4.73,4.27,6.46,6.97l4.89,7.62c.63,.98,1.28,1.98,2.22,2.67,2.81,2.07,6.71,.56,10.2,.42,3.76-.15,7.35,1.42,10.79,2.96,.47,.21,1.03,.55,1,1.06-.02,.32-.26,.57-.5,.78-2.11,1.79-5.04,2.16-7.78,2.45l-17.27,1.83c-7.44,.79-14.95,1.58-22.37,.64-9.81-1.23-19.12-5.49-26.98-11.49-5.68-4.34-10.63-9.57-14.91-15.28-1.02-1.37-5.83-6.63-5.22-8.37,.85-2.4,5.35,2.06,6.72,2.68Z"/><path class="c" d="M112.86,46.33c-3.47,2.22-6.61,4.76-10.81,5.8-3.69,.92-7.56,.65-11.24-.22-3.4-.81-7.04-1.84-9.49-4.46-1.19-1.26-2.55-2.56-4.35-2.79-1.64-.21-3.24,.51-4.89,.55s-3.62-1.25-3.06-2.69c.23-.59,.82-.98,1.39-1.32,9.01-5.3,20.42-5.35,31.12-4.92,4.89,.2,9.79,.48,14.63,1.24,3.15,.49,11.54,1.43,13.17,4.14-.33-.54-6.5,.8-7.28,.96-2.38,.48-4.8,1.19-6.94,2.36-.77,.42-1.52,.88-2.25,1.34Z"/><path class="b" d="M153.7,81.85c-2.41-1.62-5.95-1.29-8.02,.75-1.73,1.7-2.46,4.34-4.48,5.68-2.53,1.67-6.11,.53-8.21-1.66s-3.13-5.15-4.31-7.95-2.73-5.65-5.38-7.12c-3.2-1.77-7.45-.98-10.2,1.43-2.76,2.4-4.12,6.14-4.21,9.8-.05,1.9,.07,4.15-1.46,5.27-2.37,1.75-5.98-1.14-8.58,.24-1.49,.8-2,2.82-1.51,4.44,.49,1.62,1.76,2.89,3.1,3.92,6.83,5.26,16.07,5.84,24.69,5.92,6.75,.07,13.5-.05,20.25-.34,6.02-.27,8.82-4.15,14.5-6.18,4.38-1.57-4.6-13.15-6.17-14.21Z"/><path d="M10.48,124.31c0-31.3,15.47-60.26,41.42-77.58-5.27-25.24,6.1-33.08,6.59-33.41l1.68-1.11-.33,1.98c-.62,3.68-.93,7.53-.93,11.43,0,16.86,6,33.22,16.89,46.07,.18,.25,.33,.43,.47,.58,13.49,15.53,33.07,24.43,53.75,24.43,12.3,0,24.44-3.19,35.1-9.23,3.44-1.96,6.78-4.25,9.95-6.83-15.12-24.61-42.35-39.87-71.24-39.87-12.31,0-24.67,2.78-35.75,8.04l-.93,.44-2.82-9.56,.69-.32c12.25-5.6,25.31-8.44,38.8-8.44,34.04,0,65.4,18.54,81.84,48.38l1.88,3.39-2.85,2.62c-3.04,2.78-6.25,5.29-9.55,7.47-13.35,9.01-28.96,13.78-45.13,13.78-20.64,0-40.23-7.69-55.18-21.67-8.49-7.86-15.28-17.69-19.69-28.47-20.36,14.55-32.86,36.88-34.64,61.79,6.19-8.48,10.68-16.32,13.71-23.88l4.73-11.8,4.45,11.91c1.94,5.14,6,9.74,12.38,14.01-9.71-28.64,.59-40.47,1.04-40.97l1.77-1.95-.25,2.62c-.22,2.29-.33,4.54-.33,6.69,0,15.66,4.99,30.51,14.44,42.94l9.56,12.6-1.06,1.33-14.43-6.47c-9.7-4.32-20.44-9.88-27.25-18.44-4.61,8.88-11.2,18.39-20.11,29.02l-8.69,10.34v-21.87Z"/><path d="M147.83,234.42c.61-3.71,.92-7.56,.92-11.43,0-17.17-6.17-33.75-17.38-46.67-13.46-15.53-33.05-24.43-53.73-24.43-16.4,0-32.37,5.7-45.05,16.06,15.12,24.62,42.35,39.88,71.24,39.88,12.31,0,24.66-2.78,35.74-8.04l.93-.44,2.83,9.56-.69,.31c-12.25,5.6-25.31,8.44-38.8,8.44-34.05,0-65.41-18.54-81.84-48.38l-1.88-3.39,2.85-2.62c14.99-13.68,34.41-21.22,54.68-21.22,33.13,0,62.4,19.63,74.86,50.12,20.36-14.54,32.86-36.88,34.64-61.77-6.18,8.46-10.68,16.29-13.71,23.86l-4.73,11.8-4.45-11.89c-1.94-5.16-6-9.76-12.38-14.03,9.71,28.64-.59,40.47-1.04,40.97l-1.77,1.95,.25-2.62c.22-2.29,.33-4.54,.33-6.69,0-15.66-4.99-30.51-14.44-42.95l-9.56-12.6,1.06-1.33,14.43,6.47c9.72,4.35,20.48,9.93,27.25,18.44,4.61-8.88,11.2-18.39,20.12-29.02l8.69-10.35v21.89c0,31.28-15.47,60.23-41.43,77.56,5.27,25.24-6.1,33.1-6.59,33.43l-1.68,1.11,.33-1.99Z"/></g></svg>