<?xml version="1.0" encoding="UTF-8"?><svg id="a" xmlns="http://www.w3.org/2000/svg" viewBox="0 0 539.71 400"><defs><style>.b{fill:#ff002c;}</style></defs><path class="b" d="M389.08,138.92c-2.4-69.76-59.73-125.56-130.07-125.56-54.49,0-101.15,33.48-120.54,80.99-1.92,4.65-3.56,9.45-4.9,14.37,4.05,2.93,7.95,6.11,11.71,9.5-4.99,4.51-10.25,8.63-15.78,12.39-.44,4.24-.65,8.56-.65,12.92,0,1.55,.02,3.08,.1,4.61,2.4,69.76,59.73,125.56,130.07,125.56,54.49,0,101.15-33.48,120.54-80.99,1.92-4.65,3.56-9.45,4.9-14.37l4.07-21.89c.44-4.24,.65-8.56,.65-12.92,0-1.55-.02-3.08-.1-4.61Zm-202.16,9.79c62.64,30.64,122.02-.8,122.02-.8-49.93,16.68-103.87,5.26-142.55-29.69,26.57-24.02,60.62-37.16,96.69-37.16s70.1,13.14,96.67,37.16c-8.48,7.66-17.82,14.25-27.8,19.68-64.72-33.89-123.65,1.5-123.65,1.5,50.15-17.06,104.4-5.77,143.33,29.43-26.57,24.02-60.62,37.16-96.69,37.16s-70.1-13.14-96.67-37.14c8.73-7.9,18.33-14.67,28.65-20.14Z"/><g><g><path d="M372.45,156.71l-5.14,5.16c-1.67,1.67-3.37,3.3-5.11,4.9-29.35,26.91-67.17,41.64-107.26,41.64-42.44,0-82.34-16.53-112.38-46.54l-5.14-5.16,5.14-5.14c8.99-8.97,18.93-16.8,29.65-23.34,3.01-1.84,6.08-3.59,9.21-5.21l6.74,12.9c-.41,.22-.82,.44-1.24,.68-10.33,5.48-19.93,12.24-28.65,20.14,26.57,24,60.62,37.14,96.67,37.14s70.13-13.14,96.69-37.16c-38.93-35.2-93.18-46.49-143.33-29.43,0,0,58.93-35.39,123.65-1.5,4.73,2.47,9.48,5.31,14.25,8.56,5.28,3.61,10.59,7.73,15.9,12.44,1.75,1.53,3.47,3.13,5.21,4.8l5.14,5.14Z"/><path d="M429.8,174.92c-6.04-5.91-13.55-13.28-13.55-18.2s7.51-12.29,13.55-18.2c7.03-6.88,13.67-13.38,15.95-20.99l3.51-11.66-11.93,2.45c-17.11,3.49-33.38,9.77-48.26,18.49-9.6,5.65-18.64,12.31-26.98,19.97-1.72,1.53-3.42,3.15-5.07,4.8l-5.14,5.14,5.14,5.14c1.7,1.7,3.42,3.35,5.16,4.92,5.48,5.04,11.3,9.65,17.36,13.82,17.38,11.95,36.94,20.29,57.79,24.55l11.93,2.42-3.51-11.64c-2.28-7.61-8.92-14.13-15.95-21.02Zm-45.35-8.7c-4.05-2.93-7.95-6.11-11.71-9.5,4.99-4.51,10.25-8.63,15.78-12.39,9.55-6.47,19.85-11.76,30.66-15.76-8.68,8.48-17.48,17.31-17.48,28.14s8.82,19.66,17.5,28.17c-12.39-4.58-24.07-10.84-34.76-18.66Z"/></g><g><path d="M380.6,106.1l-5.14,5.14c-8.87,8.85-18.69,16.6-29.26,23.1-3.34,2.08-6.76,4-10.25,5.79l-6.67-12.92c.9-.46,1.79-.95,2.67-1.43,9.99-5.43,19.32-12.02,27.8-19.68-26.57-24.02-60.62-37.16-96.67-37.16s-70.13,13.14-96.69,37.16c38.69,34.95,92.62,46.37,142.55,29.69,0,0-59.39,31.44-122.02,.8-4.9-2.4-9.82-5.16-14.71-8.36-5.43-3.54-10.86-7.61-16.22-12.24-1.77-1.53-3.54-3.1-5.28-4.75l-5.14-5.14,5.14-5.16c1.67-1.67,3.37-3.3,5.11-4.9,29.35-26.91,67.17-41.64,107.26-41.64,42.44,0,82.34,16.53,112.38,46.54l5.14,5.16Z"/><path d="M160.98,100.96c-1.7-1.7-3.42-3.35-5.16-4.92-5.48-5.04-11.3-9.65-17.36-13.82-17.38-11.95-36.94-20.29-57.79-24.55l-11.93-2.42,3.51,11.64c2.28,7.64,8.92,14.13,15.95,21.02,6.04,5.91,13.55,13.28,13.55,18.2s-7.51,12.29-13.55,18.2c-7.03,6.88-13.67,13.38-15.95,20.99l-3.51,11.66,11.93-2.42c17.11-3.51,33.38-9.79,48.26-18.52,9.65-5.65,18.71-12.34,27.05-20.02,1.7-1.53,3.37-3.13,4.99-4.75l5.14-5.14-5.14-5.14Zm-31.49,17.53c-9.55,6.47-19.85,11.76-30.66,15.76,8.68-8.48,17.48-17.31,17.48-28.14s-8.82-19.66-17.5-28.17c12.39,4.58,24.07,10.84,34.76,18.66,4.05,2.93,7.95,6.11,11.71,9.5-4.99,4.51-10.25,8.63-15.78,12.39Z"/></g></g><g><path d="M34.87,327.62l-.47,4.3,2.56-3.25,27.88-31.49h21.84l-35.32,38.34,35.44,47.17h-21.38l-26.37-36.48-4.18,4.18v32.3H17.79v-85.51h17.08v30.44Z"/><path d="M103.07,340.05c0-5.89,1.12-11.46,3.37-16.73,2.25-5.27,5.36-9.93,9.35-14,3.99-4.07,8.62-7.26,13.88-9.58,5.27-2.32,10.92-3.49,16.96-3.49s11.58,1.16,16.85,3.49c5.27,2.32,9.94,5.52,14,9.58,4.07,4.07,7.24,8.74,9.53,14,2.28,5.27,3.43,10.85,3.43,16.73s-1.14,11.7-3.43,16.96c-2.29,5.27-5.46,9.89-9.53,13.88-4.07,3.99-8.73,7.11-14,9.35-5.27,2.25-10.88,3.37-16.85,3.37s-11.7-1.12-16.96-3.37c-5.27-2.24-9.9-5.36-13.88-9.35-3.99-3.99-7.11-8.62-9.35-13.88-2.25-5.27-3.37-10.92-3.37-16.96Zm17.43,0c0,3.8,.68,7.34,2.03,10.63,1.36,3.29,3.25,6.2,5.69,8.71,2.44,2.52,5.27,4.47,8.48,5.87,3.21,1.39,6.72,2.09,10.51,2.09s7.03-.7,10.17-2.09c3.14-1.39,5.87-3.35,8.19-5.87,2.32-2.52,4.14-5.42,5.46-8.71,1.32-3.29,1.98-6.83,1.98-10.63s-.68-7.47-2.04-10.8c-1.36-3.33-3.21-6.26-5.58-8.77-2.36-2.52-5.13-4.47-8.31-5.87-3.18-1.4-6.62-2.09-10.34-2.09s-7.17,.7-10.34,2.09c-3.18,1.39-5.97,3.35-8.37,5.87-2.4,2.52-4.26,5.44-5.58,8.77-1.32,3.33-1.98,6.93-1.98,10.8Z"/><path d="M221.23,297.18h16.85v85.51h-16.85v-85.51Z"/><path d="M286.99,297.18l24.98,61.58-9.76-1.98,22.66-59.6h19.98l-39.04,89.46-39.04-89.46h20.21Z"/><path d="M373.55,297.18h58.33v16.27h-41.48v18.24h36.71v16.27h-36.71v18.47h43.11v16.27h-59.95v-85.51Z"/><path d="M464.87,297.18h16.85v69.25h40.2v16.27h-57.05v-85.51Z"/></g></svg>