<?xml version="1.0" encoding="UTF-8"?><svg id="a" xmlns="http://www.w3.org/2000/svg" viewBox="0 0 531.72 400"><defs><style>.b{fill:#ec002c;}</style></defs><g><path d="M72.51,386.63c-2.18-2.35-5.01-5.23-8.49-8.63-3.48-3.4-7.4-6.99-11.76-10.77-4.36-3.78-8.97-7.6-13.83-11.46-4.86-3.86-9.77-7.47-14.71-10.83v41.69H15.04v-81.74c0-1.34,.36-2.43,1.07-3.27,.71-.84,1.91-1.26,3.58-1.26,.84,0,1.61,.11,2.33,.32,.71,.21,1.28,.44,1.7,.69v38.17c1.51-1.25,3.44-2.86,5.78-4.83,2.35-1.97,4.88-4.08,7.61-6.34,2.72-2.26,5.51-4.54,8.36-6.84,2.85-2.3,5.53-4.48,8.05-6.53,2.52-2.05,4.72-3.83,6.6-5.33,1.88-1.51,3.25-2.59,4.09-3.26,1.34-1.09,2.49-2.01,3.46-2.77,.96-.76,1.86-1.38,2.7-1.89,.84-.5,1.65-.86,2.45-1.07,.8-.21,1.65-.32,2.58-.32,1.42,0,2.62,.38,3.58,1.13,.96,.75,1.61,1.34,1.95,1.76-.5,.42-1.74,1.4-3.71,2.95-1.97,1.55-4.36,3.45-7.17,5.71-2.81,2.26-5.93,4.75-9.37,7.47-3.44,2.72-6.81,5.42-10.12,8.1-3.31,2.68-6.46,5.23-9.43,7.66-2.98,2.43-5.47,4.44-7.48,6.02,4.78,3.53,9.51,7.2,14.21,11.02,4.69,3.82,9.18,7.66,13.46,11.52,4.27,3.86,8.3,7.74,12.07,11.65,3.77,3.91,7.21,7.66,10.31,11.27h-11.19Z"/><path d="M192.11,343.37c0,6.54-1.15,12.6-3.46,18.17-2.31,5.58-5.49,10.4-9.56,14.46-4.07,4.07-8.86,7.23-14.4,9.5-5.53,2.26-11.53,3.4-17.98,3.4s-12.45-1.13-17.98-3.4c-5.53-2.26-10.31-5.43-14.34-9.5-4.02-4.06-7.19-8.89-9.49-14.46-2.31-5.57-3.46-11.63-3.46-18.17s1.15-12.58,3.46-18.11c2.3-5.54,5.47-10.31,9.49-14.34,4.02-4.02,8.8-7.17,14.34-9.43,5.53-2.26,11.53-3.4,17.98-3.4s12.45,1.13,17.98,3.4c5.53,2.26,10.33,5.41,14.4,9.43,4.07,4.02,7.25,8.8,9.56,14.34,2.3,5.53,3.46,11.57,3.46,18.11Zm-9.31,0c0-5.54-.92-10.61-2.77-15.22-1.85-4.61-4.38-8.57-7.61-11.89-3.23-3.31-7.04-5.89-11.44-7.73-4.4-1.84-9.16-2.77-14.27-2.77s-9.85,.93-14.21,2.77c-4.36,1.85-8.15,4.42-11.38,7.73s-5.76,7.27-7.61,11.89c-1.85,4.61-2.77,9.68-2.77,15.22s.92,10.63,2.77,15.28c1.84,4.65,4.38,8.66,7.61,12.01,3.23,3.35,7.02,5.95,11.38,7.8,4.36,1.85,9.1,2.77,14.21,2.77s9.87-.92,14.27-2.77c4.4-1.84,8.21-4.44,11.44-7.8,3.23-3.35,5.76-7.36,7.61-12.01,1.84-4.65,2.77-9.75,2.77-15.28Z"/><path d="M222.79,386.63v-81.74c0-1.34,.36-2.43,1.07-3.27,.71-.84,1.91-1.26,3.58-1.26,.84,0,1.61,.11,2.33,.32,.71,.21,1.28,.44,1.7,.69v85.26h-8.68Z"/><path d="M265.29,301.62c1.68,4.78,3.73,10.31,6.16,16.6,2.43,6.29,5.05,12.89,7.86,19.81,2.81,6.92,5.74,13.94,8.8,21.06,3.06,7.13,6.1,14,9.12,20.63,1.51-3.19,3.14-6.81,4.9-10.88,1.76-4.06,3.58-8.36,5.47-12.89,1.88-4.53,3.77-9.12,5.66-13.77,1.89-4.65,3.69-9.16,5.41-13.52s3.31-8.41,4.78-12.14c1.47-3.73,2.75-6.94,3.84-9.62,1.09-2.68,2.12-4.44,3.08-5.28,.96-.84,2.37-1.26,4.21-1.26,.84,0,1.61,.11,2.33,.32,.71,.21,1.32,.44,1.82,.69-.84,2.26-2.03,5.37-3.58,9.31-1.55,3.94-3.33,8.36-5.34,13.27-2.01,4.9-4.17,10.12-6.48,15.66-2.31,5.54-4.65,11.09-7.04,16.66-2.39,5.58-4.74,10.96-7.04,16.16-2.31,5.2-4.46,9.93-6.48,14.21h-11.44c-2.26-4.44-4.53-9.14-6.79-14.08-2.26-4.95-4.49-9.89-6.67-14.84-2.18-4.95-4.28-9.79-6.29-14.52-2.01-4.73-3.84-9.11-5.47-13.14-1.64-4.02-3.06-7.54-4.28-10.56-1.22-3.02-2.12-5.32-2.7-6.92-.84-2.18-1.43-3.83-1.76-4.97-.34-1.13-.5-2.12-.5-2.95,0-1.17,.36-2.18,1.07-3.02,.71-.84,1.78-1.26,3.21-1.26s2.45,.19,3.08,.57c.63,.38,.98,.61,1.07,.69Z"/><path d="M373.32,345.76v33.2h53.57v7.67h-62.75v-81.24c0-1.51,.46-2.73,1.38-3.65,.92-.92,2.35-1.38,4.27-1.38h53.82c1.17,0,2.16,.32,2.95,.94,.8,.63,1.19,1.62,1.19,2.95,0,.93-.15,1.72-.44,2.39-.29,.67-.52,1.13-.69,1.38h-53.32v30.06h48.29c1.17,0,2.16,.32,2.95,.94,.8,.63,1.19,1.62,1.19,2.95,0,.92-.15,1.72-.44,2.39-.29,.67-.53,1.13-.69,1.38h-51.31Z"/><path d="M459.08,386.63v-81.74c0-1.34,.36-2.43,1.07-3.27,.71-.84,1.91-1.26,3.58-1.26,.84,0,1.61,.11,2.33,.32,.71,.21,1.28,.44,1.7,.69v77.59h48.92v7.67h-57.6Z"/></g><g><path class="b" d="M137.42,141.58c.3-2.4,.82-4.92,2.46-6.69,2.29-2.45,6.16-2.73,9.38-1.8,3.22,.93,6.05,2.85,9.07,4.29,7.01,3.35,15.21,4.13,22.72,2.16,5.08-1.33,10.05-3.9,15.28-3.37,7.17,.72,13.23,7.17,20.4,6.42,2.74-.29,5.24-1.62,7.85-2.49,5.84-1.94,12.17-1.55,18.28-.85,1.7,.19,3.5,.45,4.79,1.57,2.23,1.94,1.93,5.44,1.43,8.36-.16,.92-.33,1.87-.87,2.62-.71,.99-1.92,1.47-3.07,1.84-15.98,5.15-33.74-.87-50.04,3.16-6.71,1.66-13.47,5.03-20.19,3.42-2.6-.62-4.96-1.95-7.35-3.16-8-4.06-16.65-6.84-25.52-8.21"/><path class="b" d="M246.5,95.99c-2.21-.66-4.58-.57-6.88-.33-5.42,.55-10.76,1.84-15.83,3.82-2.99,1.17-6.04,2.6-9.24,2.33-2.56-.22-4.89-1.51-7.11-2.79-3.91-2.25-7.96-4.72-10.21-8.63-2.25-3.91-1.91-9.69,1.91-12.1,1.64-1.04,3.64-1.31,5.58-1.5,16.09-1.63,32.53,.23,47.86,5.38,6.16,2.07,14.18,4.28,17.77,10.2,2.43,4.01,2.63,8.77-2.21,10.7-8.78,3.52-14.31-4.88-21.65-7.07Z"/><path class="b" d="M186.96,223.98c1.82,3.73,1.48,8.13,2.57,12.13,2.09,7.71,10.09,13.36,18.06,12.76,5.66-.43,10.8-3.58,16.43-4.25,11.24-1.35,20.93,7.08,31,12.25,6.93,3.56,14.6,5.67,22.38,6.18,3.67,.24,7.49,.1,10.83-1.44s6.14-4.72,6.3-8.39c.16-3.7-2.12-7.96,.28-10.78,1.38-1.62,3.73-1.9,5.85-2.03,5.47-.33,11.13-.4,16.15-2.62,5.01-2.22,9.25-7.32,8.49-12.76-25.82,7.29-52.49,11.54-79.29,12.63-5.3,.22-10.64,.31-15.86-.6-10.99-1.89-20.74-8.02-31.34-11.48"/><path class="b" d="M305.65,35.29c-3.83-2.65-6.49-6.66-10.1-9.61-3.61-2.94-9.05-4.65-12.82-1.93-2.79,2.01-3.9,5.92-6.93,7.55-2.85,1.53-6.31,.52-9.52,.13-8.48-1.02-17.37,3.08-22.1,10.18,.6-.9,21.68,5.19,24.02,5.67,8.51,1.74,17.1,3.1,25.77,3.66,5.85,.38,17.51,2.32,22.04-2.68,5.77-6.37-6.45-10.29-10.35-12.98Z"/><g><g><path class="b" d="M396.51,115.2c5.45,1.26,9.41,6.84,9.2,12.43s-4.32,10.7-9.6,12.51c-2.9,.99-6.13,1.12-8.77,2.68-2.49,1.47-4.19,4.1-6.82,5.3-2.72,1.25-5.88,.74-8.83,.2-1.26-.23-2.61-.5-3.52-1.42-1.11-1.11-1.25-2.86-2.04-4.21-1.32-2.25-4.23-3.06-6.83-2.87s-5.07,1.18-7.63,1.65c-5.54,1.03-12.08-.91-14.53-5.98-.87-1.81-1.16-3.84-1.8-5.74s-1.79-3.82-3.66-4.54c-.99-.38-2.07-.39-3.13-.4l-9.28-.05c-1.63,0-3.9-.79-3.46-2.36,9.29-2.35,18.98,1.09,27.78,4.86s17.91,8.04,27.47,7.39c7.42-.51,14.28-3.94,20.91-7.31"/><path class="b" d="M395.59,135.28l-.82,.33c-1.25,.5-2.72,1.02-4.41,1.5-3.15,.94-7.04,1.72-11.7,2.03-3.99-.95-7.83-2.51-11.31-4.57-.99-.57-1.95-1.16-2.87-1.85-1.94-1.41-3.89-3.16-4.5-5.5-.26-1-.24-2.14,.44-2.94,.16-.21,.32-.36,.55-.5,.19-.18,.44-.29,.67-.43,1.65-1.04,3.32-2.04,4.97-3.07,.89-.51,1.74-1.06,2.71-1.36,2.82-.98,5.91,.14,8.2,1.94,2.26,1.76,4,4.18,5.97,6.27,.53,.58,1.09,1.13,1.89,1.22,.61,.09,1.21-.16,1.78-.44,3.15-1.58,5.59-4.59,6.49-7.99,.41-1.68,.24-3.22,.06-4.83,0-.52-.08-1.05-.11-1.61,1.91-.62,4.41,2.69,5.99,5.07,.64,2.18,1.19,4.4,1.55,6.66,.67,4.22-1.61,8.37-5.53,10.07Z"/><path class="b" d="M307.89,66.07c-2.12-.13-3.94-1.47-5.83-2.45-5.75-2.94-13.21-2.13-18.23,1.93-1.73,1.4-3.25,3.21-5.32,3.98-2.66,1.02-5.64,.15-8.11-1.26-3.79-2.08-6.84-5.48-8.6-9.41-1.96-4.4-2.73-9.95-6.84-12.38-2.49-1.5-5.57-1.39-8.38-1.95-1.38-.22-2.8-.8-3.93-1.59-1.22-.89-2.09-2.1-2.21-3.58-.02-.22-.04-.43,.03-.68,22.87-1.16,48.84,.92,77.61,8.33-.92-2.1-1.97-4.8-2.85-7.89,2.26,1.83,4.11,3.91,5.23,6.3,.82,1.73,.77,4.19,.07,6.78-1.71,6.58-7.38,14.18-12.63,13.85Z"/><path class="b" d="M275.69,100.3c-13.71-6.86-37.8-15.61-72.48-17.03-.58-.18-1.06-.39-1.57-.62-2.23-1.02-4.46-2.23-6.13-4l-.03,.03c-.32-.35-.62-.67-.91-1.06-1.74-2.36-2.27-5.83-.5-8.15,2.06-2.77,6.07-2.9,9.55-2.9,3.45-.03,7.57-.62,9.01-3.76,.61-1.2,.67-2.68,1.61-3.65,.55-.56,1.3-.84,2.05-1.05,6.7-1.83,13.79,1.54,19.01,6.15,5.22,4.54,9.3,10.36,14.61,14.82,1.52,1.21,3.13,2.39,4.95,3.02,3.52,1.2,7.4,.42,11.07,1.08,4.49,.79,12.88,7.5,12.28,13.3-.07,.77-.28,1.5-.65,2.19-.44,.81-1.11,1.37-1.86,1.64Z"/><path d="M205.73,56.55c-6.58,6.02-17.62,2.85-25.36,7.27-2.43,1.34-4.37,3.41-6.77,4.78-2.4,1.37-5.6,2-7.87,.42-2.15-1.57-2.69-4.68-1.96-7.23,.04-.15,.11-.33,.14-.49l.03-.03c.84-2.36,2.41-4.33,4.04-6.23,.98-1.19,1.95-2.32,2.93-3.5,.49-.04,1.02-.05,1.48-.06-.3-.2-.63-.37-.96-.54,.94-1.1,1.86-2.23,2.77-3.36,1.59,.96,3.11,1.99,4.6,3.1,8.6-3.03,18.06-5.72,28.38-7.85,1.81,.88,3.45,2.03,4.86,3.51,.12,.07,.24,.2,.33,.29-.24-.07-.49-.15-.7-.25l-.03,.03c-.15-.1-.3-.14-.45-.17-.04,.09-.07,.18-.1,.27-1.39,3.57-2.39,7.32-5.34,10.02Z"/><path class="b" d="M390.37,137.11c-3.15,.94-7.04,1.72-11.7,2.03-9.92,.7-23.22-.76-39.76-7.69l-11.64-3.51c-3.83-1.16-7.78-1.67-11.69-1.57-1-1.03-2-2.12-2.94-3.21,.82-.39,1.6-.76,2.39-1.19h.06c4.72-2.31,9.48-4.66,14.23-6.94,3.31-1.61,7.11-3.26,10.5-1.93,3.24,1.28,4.93,4.81,6.64,7.84,1.74,3,4.43,6.2,7.89,5.99,2.5-.17,4.43-1.93,6.61-3.15,.54-.31,1.1-.6,1.7-.79,3.75-1.19,7.79,.78,10.72,3.34,2.96,2.6,5.34,5.84,8.61,7.99,.03,.03,.09,.03,.12,.07,2.19,1.3,6.69,1.13,8.26,2.71Z"/><path d="M211.18,46.26c-.04,.09-.07,.18-.1,.27,.19-.05,.34-.08,.56-.1l.03-.03c-.18-.07-.33-.11-.49-.14Zm0,0c-.04,.09-.07,.18-.1,.27,.19-.05,.34-.08,.56-.1-.15-.1-.3-.14-.45-.17Zm0,0c-.04,.09-.07,.18-.1,.27,.19-.05,.34-.08,.56-.1-.15-.1-.3-.14-.45-.17Zm0,0c-.04,.09-.07,.18-.1,.27,.19-.05,.34-.08,.56-.1-.15-.1-.3-.14-.45-.17Zm0,0c-.04,.09-.07,.18-.1,.27,.19-.05,.34-.08,.56-.1-.15-.1-.3-.14-.45-.17Zm0,0c-.04,.09-.07,.18-.1,.27,.19-.05,.34-.08,.56-.1-.15-.1-.3-.14-.45-.17Zm0,0c-.04,.09-.07,.18-.1,.27,.19-.05,.34-.08,.56-.1-.15-.1-.3-.14-.45-.17Zm189.95,78.95c-.36-2.26-.91-4.48-1.55-6.66-9.3-30.35-46.04-54.54-52.36-58.48-5.76-34.54-25.17-48.03-25.98-48.59-.93-.63-2.23-.44-2.95,.45-6.56,8.18-5.47,18.97-3.06,27.21,.88,3.09,1.93,5.78,2.85,7.89-28.77-7.41-54.74-9.5-77.61-8.33-11.98,.57-23.04,2.08-33.29,4.15-10.32,2.13-19.77,4.81-28.38,7.85-1.49-1.11-3.02-2.14-4.6-3.1-14.8-9.22-32.64-12.48-33.47-12.61-.64-.12-1.3,.07-1.78,.44-.51,.41-.78,1.01-.81,1.63-.09,2.74,.7,5.08,1.52,7.27,.55,1.38,1.33,2.68,2.39,3.83,2.17,2.38,5.48,4.25,9.85,5.55,4.17,1.2,9.22,1.83,13.86,2.07-3.17,1.37-6.25,2.77-9.15,4.18-.03,.03-.09,.03-.16,.09-22.14,10.87-36.06,22.66-41.68,27.86-18.63,7.61-40.41,20.15-63.43,33.48l-.89,.51c-.73,.43-1.1,1.18-1.07,1.98,.03,.8,.48,1.56,1.21,1.9,8.93,4.28,17.33,2.19,27.4-1.18-2.99,8.92-4.73,23.26-1.21,34.01,.08,.28,.25,.53,.46,.76,.38,.42,.92,.69,1.48,.71,.92,.04,1.75-.48,2.12-1.29,10.96-24.7,22.77-49.89,36.15-65.31,16.67-4.34,32.13-7.16,46.37-8.74-1.12,.9-2.15,1.84-3.09,2.94-4.48,5.1-6.87,11.83-6.24,17.55,.29,2.45,1.05,4.7,2.32,6.6,.06,.13,.11,.19,.2,.29,.32,.35,.77,.59,1.26,.67,.61,.09,1.24-.07,1.71-.45,.64-.53,15.04-12.57,21.32-29.05,7.9-.39,15.35-.36,22.36-.05,34.68,1.43,58.77,10.17,72.48,17.03,4.52,2.17,7.88,4.17,10.19,5.66-21.48,6.56-30.15,19.2-30.51,19.76-.36,.51-.48,1.15-.29,1.74,.16,.62,.57,1.13,1.14,1.38,17,8.34,34.6,4.62,46.35,0,4.14-1.6,8.52-2.42,13.01-2.47,3.92-.1,7.87,.41,11.69,1.57l11.64,3.51c16.54,6.93,29.84,8.39,39.76,7.69,4.66-.32,8.55-1.1,11.7-2.03,1.68-.48,3.16-1,4.41-1.5l.82-.33c3.93-1.7,6.21-5.85,5.53-10.07Zm-57.46-62.31c.62,.67,.78,3.11,.88,4.44,.04,.49,.08,.99,.09,1.39,.24,2.26,.45,5.19-.29,7.93-.18,.58-.32,.94-.51,1.12-.22,.21-.99,.2-1.63-.17-2.52-1.41-4.78-4.71-6.74-9.76-.5-1.32-1.04-2.94-.73-4.34,.08-.37,.35-1.56,2.25-2.12,2.21-.61,5.32,.08,6.68,1.5Zm-199.94-20.11c-.36-.97-.71-1.94-.95-2.91,5.52,1.26,18,4.59,28.64,11.07,.33,.17,.66,.34,.96,.54-.46,.01-.99,.02-1.48,.06-9.15,.11-24.33-1.33-27.17-8.76Zm-64.18,108.22c-1.35-10.56,1.13-23.14,4.19-28.95,.44-.81,.33-1.77-.29-2.45l-.03-.03c-.59-.64-1.5-.87-2.31-.6l-.91,.3c-9.35,3.19-16.51,5.61-23.49,4.03,19.28-11.15,37.59-21.64,53.74-28.86-11.34,14.62-21.45,35.48-30.89,56.55Zm79.32-43.89c-.27-.75-.42-1.56-.51-2.36-.51-4.49,1.53-10.06,5.16-14.21,2.4-2.73,6.42-5.93,12.54-6.92-4.71,10.97-13.26,19.8-17.19,23.5Zm208.48,27.45c-7.6-.77-16.62-2.9-26.96-7.24l-11.85-3.55c-4.44-1.31-8.94-1.91-13.44-1.8h-.06c-4.81,.15-9.57,1.08-14.05,2.82-10.38,4.06-25.55,7.39-40.34,1.28,3.53-3.94,12.98-12.63,30.2-17.01,.39,.23,.87,.56,1.26,.8,.42,.27,.78,.47,.9,.53,2.71,1.35,6.82,3.14,11.18,3.39,3.66,.19,7.09-.76,9.64-2.68,2.97-2.3,5.88-7.56,3.6-11.54-1.4-2.37-4.4-2.88-6.77-2.3-4.73,1.14-9.31,3.03-13.8,4.83-1.88,.78-3.73,1.53-5.58,2.21-1.88-1.35-6.21-4.34-13.08-7.85-7.26-3.62-17.36-7.83-30.39-11.24-13.12-3.45-30.63-6.42-52.31-6.59l-.03,.03c-5.11-.04-10.38,.06-15.94,.37-.09-.03-.18-.07-.24-.07-1.11,.01-2.22,.15-3.31,.31-16.31,1.06-34.44,3.67-54.53,8.59,6.85-5.85,19.38-15.3,37.07-24,.06,0,.09-.03,.16-.09,1.67-.82,3.43-1.66,5.22-2.48l.03-.03c12.92-5.86,28.65-11.29,47.13-14.74,.19-.05,.34-.08,.56-.1l.03-.03c.09-.03,.25-.05,.37-.05,9.5-1.79,19.72-3,30.61-3.41,22.99-.97,49,1.42,77.87,9.27,.3,.08,.61,.15,.91,.23,.67,.21,1.41,.12,2.02-.31,.89-.64,1.13-1.86,.59-2.84-.11-.19-11.33-20.12-3.58-32.87,4.51,3.9,16.79,16.43,21.83,40.89-2.1-.62-4.4-.69-6.46-.1-2.84,.77-4.77,2.77-5.32,5.4-.54,2.5,.21,4.94,.9,6.78,1.55,4.01,3.29,7.08,5.28,9.26,1.06,1.16,2.19,2.07,3.39,2.74,1.95,1.1,4.78,1.35,6.73-.44,1.03-.94,1.48-2.18,1.74-3.19,.92-3.38,.74-6.87,.43-9.53-.02-.34-.06-.77-.1-1.21-.02-.22-.01-.46-.03-.68,10.46,7.18,35.48,26.1,44.85,48.72,1.44,3.51,2.54,7.17,3.12,10.83,.39,2.24-.88,4.46-2.98,5.38l-.69,.28c-2.64,1.11-6.29,2.21-11.03,2.83-4.12,.59-9.06,.8-14.76,.17Zm-71.18-27.48c.78-.3,1.57-.61,2.32-.94,4.33-1.78,8.78-3.61,13.2-4.65,.81-.21,1.67-.05,1.9,.21l.06,.06c.86,1.52-.88,4.64-2.48,5.86-1.72,1.34-4.12,1.94-6.73,1.79-2.98-.16-6.01-1.28-8.27-2.34Zm-85-60.83c-.04,.09-.07,.18-.1,.27,.19-.05,.34-.08,.56-.1-.15-.1-.3-.14-.45-.17Zm0,0c-.04,.09-.07,.18-.1,.27,.19-.05,.34-.08,.56-.1-.15-.1-.3-.14-.45-.17Zm0,0c-.04,.09-.07,.18-.1,.27,.19-.05,.34-.08,.56-.1-.15-.1-.3-.14-.45-.17Zm0,0c-.04,.09-.07,.18-.1,.27,.19-.05,.34-.08,.56-.1-.15-.1-.3-.14-.45-.17Zm0,0c-.04,.09-.07,.18-.1,.27,.19-.05,.34-.08,.56-.1-.15-.1-.3-.14-.45-.17Zm0,0c-.04,.09-.07,.18-.1,.27,.19-.05,.34-.08,.56-.1-.15-.1-.3-.14-.45-.17Z"/></g><g><path class="b" d="M326.24,229.72c-33.19,10.97-79.21,17.04-136.27,1.87h-.04c-1.07-1.28-2.01-2.64-2.73-4.18-.22-.44-.4-.85-.56-1.22-1.72-4.44,1.43-2.34,5.38-1.51,7.48,1.61,14.75-3.04,20.49-7.29,6.56-4.82,14.26-10.14,22.14-8.12,1.08,.27,2.14,.67,2.92,1.44,1.58,1.63,1.48,4.18,1.94,6.4,.78,3.79,3.63,7.07,7.2,8.42,3.61,1.34,7.88,.73,10.96-1.59,.96-.73,1.88-1.63,3-2.04,2.37-.8,4.82,.74,7.08,1.78,5.9,2.74,13.22,2.07,18.51-1.59,3.07-2.14,5.39-5.11,8.22-7.52,2.84-2.41,6.55-4.24,10.17-3.47,4.33,.97,6.99,5.22,10.69,7.66,3.37,2.15,7.87,3.04,9.95,6.48,0,.04,.07,.12,.08,.16,.75,1.27,1.02,2.81,.89,4.3Z"/><path class="b" d="M252.02,151.55c.17,.59,.03,1.24-.31,1.75-.27,.41-4.56,6.54-14.34,12.33h-.04c-11.94,4.38-24.29,7.59-36.87,9.52,2.62-.85,5.25-1.88,7.84-2.9,.78-.29,1.56-.63,2.34-.93-2.26-1.05-5.26-2.25-8.23-2.44-1.17-.07-2.27-.02-3.29,.19-1.32,.27-2.5,.78-3.46,1.51-1.58,1.17-3.29,4.1-2.65,5.66-1.43,.16-2.9,.38-4.36,.63-3.95,.68-7.81,1.79-10.8,4.31-1.29,1.07-2.65,2.46-4.3,2.22-1.61-.25-2.54-1.96-3.03-3.51-1.04-3.12-1.55-6.43-1.43-9.75,.15-3.81,.53-8.64-2.86-10.43-1.74-.89-3.88-.49-5.77,.03-5.56,1.68-11.04,4.63-16.79,3.9-1.23-.15-2.45-.47-3.34-1.35-1-.99-1.31-2.48-1.55-3.86-.99-5.44-2.33-11.07-1.81-15.89,.13-1.54,.49-2.99,1.08-4.26h.04c8.41,.7,18.48,2.98,30.15,8.08l11.59,3.65c8.17,2.58,16.93,2.38,24.72-.56,11.84-4.44,29.47-7.9,46.38,.66,.55,.29,.96,.78,1.09,1.42Z"/><path d="M456.46,156.06c-8.86-4.39-17.29-2.43-27.38,.8,3.06-8.85,5.04-23.21,1.66-33.97-.26-.83-1.06-1.47-1.95-1.51-.85-.05-1.73,.45-2.1,1.23-11.26,24.49-23.38,49.51-36.89,64.78-.89,.23-1.74,.4-2.59,.58-15.82,3.84-30.52,6.25-44.07,7.57,1.18-.95,2.27-1.93,3.13-2.91,4.56-5.03,7.05-11.72,6.49-17.46-.24-2.44-1.01-4.68-2.22-6.65-.33-.51-.89-.88-1.49-.98-.6-.1-1.23,.08-1.73,.45-.65,.53-15.19,12.33-21.71,28.73-7.68,.25-14.93,.19-21.77-.22-46.26-2.42-73.61-17.66-82.93-23.87,6.63-1.9,12.07-4.4,16.42-6.98h.04c9.78-5.8,14.07-11.93,14.34-12.34,.34-.51,.47-1.16,.31-1.75-.13-.64-.54-1.13-1.09-1.42-16.91-8.55-34.55-5.1-46.38-.66-7.79,2.94-16.55,3.14-24.72,.56l-11.59-3.65c-11.67-5.1-21.74-7.38-30.15-8.09h-.04c-11.94-1-20.46,1.16-25.61,3.15l-.82,.35c-3.97,1.66-6.28,5.74-5.68,9.97,.14,.9,.28,1.81,.48,2.74,6.66,32.3,46,58.94,52.51,63.15,5.31,34.62,24.49,48.35,25.32,48.94,.51,.34,1.12,.48,1.67,.37,.47-.1,.95-.37,1.26-.79,9.14-11.04,4.06-27.31,.72-35.07,.7,.17,1.37,.38,2.02,.52h.04c57.06,15.15,103.08,9.09,136.27-1.88,.33-.11,.66-.23,1-.34,15.27,11.78,36.93,16.02,37.86,16.23,.27,.03,.59,.06,.84,0,.34-.07,.66-.23,.93-.46,.46-.36,.78-.96,.83-1.59,.1-2.73-.65-5.11-1.46-7.3-1.55-4.3-5.63-7.5-12.1-9.55-4.09-1.29-9.12-1.99-13.79-2.27,3.19-1.32,6.29-2.67,9.16-4.06,.09-.02,.17-.04,.2-.09,22.3-10.55,36.39-22.16,42.05-27.28,18.79-7.34,40.78-19.64,64-32.65l.79-.47c.72-.37,1.15-1.12,1.12-1.92-.04-.84-.5-1.54-1.2-1.93Zm-108.51,17.17c.24,.75,.37,1.57,.45,2.4,.43,4.44-1.67,9.99-5.35,14.12-2.42,2.68-6.49,5.82-12.65,6.74,4.86-10.91,13.55-19.63,17.55-23.25Zm-147.5,1.92h-.04c-1.78,.64-3.59,1.15-5.37,1.56-.88,.27-1.78,.01-1.97-.3,0-.04-.07-.12-.08-.16-.63-1.56,1.07-4.49,2.65-5.66,.96-.73,2.14-1.24,3.46-1.51,1.02-.21,2.12-.26,3.29-.19,2.97,.19,5.97,1.39,8.23,2.44-.78,.29-1.56,.63-2.34,.93-2.59,1.02-5.22,2.05-7.84,2.9Zm-38.76,35.27c-.01-.49-.02-.97-.06-1.36-.21-2.31-.37-5.25,.41-7.95,.19-.57,.34-.96,.52-1.13,.04,0,.12-.07,.25-.1,.34-.07,.9,.04,1.39,.29,2.53,1.48,4.71,4.76,6.61,9.88,.44,1.29,.96,2.96,.62,4.31-.05,.41-.34,1.58-2.23,2.1-2.27,.64-5.36-.14-6.67-1.56-.58-.68-.74-3.14-.84-4.49Zm200.45,27.37c.37,.94,.71,1.94,.91,2.92-5.61-1.38-18.64-5.09-29.41-12.06,8.9-.15,25.61,1.16,28.5,9.14Zm-14.48-21.32s-.12,.07-.2,.09c-6.55,3.13-13.92,6.16-22.12,8.87-33.45,11.2-80.33,17.22-138.72,.78-.66-.18-1.33-.39-1.98-.57-.68-.26-1.41-.15-2.03,.29-.89,.63-1.18,1.84-.67,2.8,.14,.24,11.07,20.29,3.15,32.94-4.45-3.92-16.57-16.58-21.24-41.2,1.9,.59,3.97,.74,5.89,.34l.55-.11c2.86-.77,4.81-2.72,5.42-5.38,.56-2.47-.17-4.9-.82-6.76-2.29-6.15-5.06-10.11-8.54-12.1-1.92-1.12-4.74-1.47-6.73,.32-1.04,.97-1.51,2.18-1.75,3.16-.99,3.4-.85,6.88-.61,9.54,.07,.34,.06,.74,.11,1.18,0,.22,.01,.49,.01,.71-11.96-8.46-43.12-32.92-47.15-60.21-.33-2.24,.95-4.46,3.07-5.34l.7-.28c4.61-1.79,12.25-3.72,22.94-2.95,8.12,.59,18.08,2.8,29.75,7.91l11.82,3.69c9.04,2.89,18.81,2.65,27.51-.6,10.44-3.88,25.69-7.07,40.41-.73-3.59,3.94-13.07,12.47-30.44,16.58-.4-.23-.91-.52-1.28-.8-.41-.27-.76-.46-.91-.52-2.69-1.4-6.79-3.22-11.13-3.57-3.65-.23-7.06,.66-9.64,2.57-2.62,1.96-5.18,6.13-4.42,9.8,.12,.6,.32,1.13,.66,1.69,1.33,2.35,4.24,2.9,6.54,2.43l.17-.04c4.76-1.07,9.4-2.91,13.88-4.64,1.89-.74,3.74-1.48,5.6-2.13,3.75,2.87,17.85,12.67,43.2,19.71,13.01,3.63,30.37,6.8,51.87,7.26,5.18,.13,10.64,.12,16.32-.12,.09,.03,.15,.06,.23,.04,1.2,.02,2.3-.07,3.42-.22,15.38-.82,32.49-2.96,51.26-7.14,1.11-.23,2.16-.49,3.27-.72-6.94,5.78-19.6,15.06-37.41,23.48Zm48.53-29.9c11.5-14.46,21.94-35.18,31.66-56.11,1.21,10.59-1.46,23.09-4.58,28.89-.46,.8-.35,1.76,.24,2.44,.54,.69,1.48,.94,2.32,.68l.92-.28c9.41-3.05,16.61-5.42,23.57-3.75-19.44,10.89-37.89,21.14-54.13,28.13Z"/></g></g><path d="M344.67,198.46c-1.08,.33-1.93-.08-2.45-.75-5.2,.88-10.47,1.36-15.73,1.66-3.15,.18-6.98,.94-2.53,3.34,2.96,1.59,6.4,3.41,9.85,2.39,3.2-.94,5.9-4.26,9.15-3.5,.94,.22,1.76,.77,2.56,1.29,2.91,1.89,6.04,3.59,9.47,4.05,2.43,.32,4.9,0,7.28-.6,6.34-1.61,11.99-5.16,17.5-8.69,1.93-1.24,3.92-2.54,5.14-4.48,.48-.77,.78-1.6,1-2.44-13.79,2.44-27.8,3.63-41.25,7.72Z"/></g></svg>